Ripper ...........:IMAGiNE                                       IMDB Rating.......:7.2/10                            
Video Codec.......:XVID                                          Release Date......:06/10/09
Audio Codec.......:MP3                                           Theatre Date......:19/08/09
Audio Bitrate.....:160                                           Runtime...........:1h 16min
Subtitles.........:NIL                                           Language..........:ENGLISH (LINE)
Resolution........:720 x 384                                     IMDb http://www.imdb.com/title/tt0472033


DETAILS:

General

Complete name                    : 9.R5.LINE.XVID-IMAGiNE.avi
Format                           : AVI
Format/Info                      : Audio Video Interleave
File size                        : 1.37 GiB
Duration                         : 1h 16mn
Overall bit rate                 : 2 585 Kbps
Writing application              : VirtualDubMod 1.5.10.2 (build 2540/release)
Writing library                  : VirtualDubMod build 2540/release

Video

ID                               : 0
Format                           : MPEG-4 Visual
Format profile                   : AdvancedSimple@L5
Format settings, BVOP            : Yes
Format settings, QPel            : No
Format settings, GMC             : No warppoints
Format settings, Matrix          : Default (H.263)
Codec ID                         : XVID
Codec ID/Hint                    : XviD
Duration                         : 1h 16mn
Bit rate                         : 2 415 Kbps
Width                            : 720 pixels
Height                           : 384 pixels
Display aspect ratio             : 1.875
Frame rate                       : 25.000 fps
Resolution                       : 24 bits
Colorimetry                      : 4:2:0
Scan type                        : Progressive
Bits/(Pixel*Frame)               : 0.349
Stream size                      : 1.28 GiB (93%)
Writing library                  : XviD 1.2.1 (UTC 2008-12-04)

Audio

ID                               : 1
Format                           : MPEG Audio
Format version                   : Version 1
Format profile                   : Layer 3
Codec ID                         : 55
Codec ID/Hint                    : MP3
Duration                         : 1h 16mn
Bit rate mode                    : Constant
Bit rate                         : 160 Kbps
Channel(s)                       : 2 channels
Sampling rate                    : 44.1 KHz
Resolution                       : 16 bits
Stream size                      : 87.0 MiB (6%)
Alignment                        : Split accross interleaves
Interleave, duration             : 40 ms (1.00 video frame)
Interleave, preload duration     : 500 ms

IMAGiNE bringing you another release.....
here is a R5 of 9 v9.5 a7.5
video source Devjat.2009.D.DVD.ELEKTRI4KA
ok we have done some funky voodoo shit to the video
just look at the screens (white balance, removed some of the noise
and also sharpened it)
now to the audio thanks to Fatal for the source
changed the EQ to make it sound alot less over powering
added the russian end credits audio to give a complete file
i can say this will be the best release till dvdrip or bdrip
